# xmcd
# 
# Track frame offsets:
#     150
#     13080
#     25860
#     42489
# 
# Disc length: 775
# 
# Revision: 0
# Processed by: cddbd v1.5.2PL0 Copyright (c) Steve Scherf et al.
# Submitted via: fre:ac v1.0.17
# 
DISCID=2a030504
DTITLE=5 Seconds of Summer - Don't Stop EP - Disc 1
DYEAR=2014
DGENRE=Pop Punk
TTITLE0=Don't Stop
TTITLE1=Rejects
TTITLE2=Try Hard
TTITLE3=If You Don't Know
EXTD=
EXTT0=
EXTT1=
EXTT2=
EXTT3=
PLAYORDER=
